<svg xmlns="http://www.w3.org/2000/svg" width="139.311" height="80" viewBox="0 0 139.311 80"><g transform="translate(-151 -0.172)"><rect width="139.31" height="80" transform="translate(151 0.172)" fill="#cf161c"/><g transform="translate(171.661 18.717)"><path d="M2,1.8H7.777V8.438h6.392V1.8h5.777V20.607H14.169V12.986H7.777v7.621H2Z" transform="translate(-2 -1.8)" fill="#fff" fill-rule="evenodd"/><path d="M30.069,13.478,27.98,6.717l-2.09,6.761ZM31.3,17.534H24.661l-.86,3.073H17.9L24.907,1.8h6.269l7.007,18.807H32.159Z" transform="translate(1.645 -1.8)" fill="#fff" fill-rule="evenodd"/><path d="M41.5,16.551h2.95a3.075,3.075,0,0,0,2.09-.492,2.036,2.036,0,0,0,.615-1.475,1.761,1.761,0,0,0-.615-1.352,3.075,3.075,0,0,0-2.09-.492H41.5Zm0-7.375h2.581a2.552,2.552,0,0,0,1.844-.492,1.679,1.679,0,0,0,.492-1.352A1.425,1.425,0,0,0,45.925,6.1a2.552,2.552,0,0,0-1.844-.492H41.5ZM35.6,1.8H46.417A6.09,6.09,0,0,1,50.6,3.152a4.209,4.209,0,0,1,1.475,3.319A4.383,4.383,0,0,1,51.088,9.3a4.5,4.5,0,0,1-1.967,1.229,5,5,0,0,1,2.95,1.721,4.485,4.485,0,0,1,.983,2.95,4.544,4.544,0,0,1-.738,2.581,6.584,6.584,0,0,1-1.844,1.844,6.933,6.933,0,0,1-2.213.615c-1.352.123-2.213.246-2.581.246H35.6V1.8Z" transform="translate(5.702 -1.8)" fill="#fff" fill-rule="evenodd"/><path d="M51.8,1.8H67.411V5.856H57.7v2.95h8.973v3.811H57.7V16.3h9.957v4.3H51.8Z" transform="translate(9.415 -1.8)" fill="#fff" fill-rule="evenodd"/><path d="M72.777,9.421h2.458c.246,0,.738-.123,1.6-.246a1.689,1.689,0,0,0,.983-.615,2.454,2.454,0,0,0,.246-1.106A1.586,1.586,0,0,0,77.448,6.1a3.252,3.252,0,0,0-2.213-.492H72.654V9.421ZM67,20.607V1.8h9.711a11.249,11.249,0,0,1,4.056.492A3.475,3.475,0,0,1,82.98,4.013a5.031,5.031,0,0,1,.86,3.073,6.257,6.257,0,0,1-.615,2.7,6.584,6.584,0,0,1-1.844,1.844,13.174,13.174,0,0,1-2.09.738,4,4,0,0,1,1.475.738,7.028,7.028,0,0,1,.983.983c.369.492.738.86.86,1.106l2.827,5.409H78.923L75.85,14.83a3.8,3.8,0,0,0-1.106-1.475,2.636,2.636,0,0,0-1.475-.492h-.492v7.621H67Z" transform="translate(12.899 -1.8)" fill="#fff" fill-rule="evenodd"/><path d="M2,24.4H19.7v4.671H13.678V43.207H7.9V29.071H2Z" transform="translate(-2 3.38)" fill="#fff" fill-rule="evenodd"/><path d="M34.946,24.4h5.777V35.586a9.166,9.166,0,0,1-.492,3.2,7.019,7.019,0,0,1-1.6,2.581,7.206,7.206,0,0,1-2.336,1.6,12.807,12.807,0,0,1-4.056.615,26,26,0,0,1-2.95-.246,7.852,7.852,0,0,1-2.7-.738,8.025,8.025,0,0,1-1.967-1.6,6.667,6.667,0,0,1-1.229-2.213,10.666,10.666,0,0,1-.492-3.2V24.4h5.777V35.832a3.348,3.348,0,0,0,.86,2.458,3.06,3.06,0,0,0,2.336.86,2.891,2.891,0,0,0,2.336-.86,3.169,3.169,0,0,0,.86-2.458V24.4Z" transform="translate(2.791 3.38)" fill="#fff" fill-rule="evenodd"/><path d="M50.8,32.021h2.458c.246,0,.738-.123,1.6-.246a1.689,1.689,0,0,0,.983-.615,1.983,1.983,0,0,0,.369-1.106,1.586,1.586,0,0,0-.615-1.352,3.252,3.252,0,0,0-2.213-.492H50.8ZM44.9,43.207V24.4h9.711a12.473,12.473,0,0,1,4.179.492,4.68,4.68,0,0,1,2.336,1.721,5.031,5.031,0,0,1,.86,3.073,6.258,6.258,0,0,1-.615,2.7,6.584,6.584,0,0,1-1.844,1.844,13.174,13.174,0,0,1-2.09.738,4,4,0,0,1,1.475.738,7.027,7.027,0,0,1,.983.983c.369.492.738.86.86,1.106l2.827,5.409H57.069L53.75,37.43a3.8,3.8,0,0,0-1.106-1.475,2.636,2.636,0,0,0-1.475-.492h-.492v7.621H44.9Z" transform="translate(7.833 3.38)" fill="#fff" fill-rule="evenodd"/><path d="M65.8,24.4h5.777v7.129L77.723,24.4h7.621l-6.761,7.129,7.129,11.678H78.584l-4.056-7.744-2.95,3.2v4.548H65.8Z" transform="translate(12.624 3.38)" fill="#fff" fill-rule="evenodd"/><rect width="98.337" height="3.381" transform="translate(0 21.02)" fill="#fff"/></g></g></svg>